<svg xmlns="http://www.w3.org/2000/svg" version="1.1"
    viewBox="0 0 96 96" x="0px" y="0px" width="40" height="40" fill="#fff">
    <path d="M32.444 65.556c-0.512 0-1.024-0.196-1.416-0.584-0.78-0.768-0.78-2.048 0-2.828l31.108-31.096c0.776-0.768 2.048-0.768 2.828 0 0.776 0.768 0.776 2.060 0 2.828l-31.108 31.096c-0.388 0.388-0.9 0.584-1.412 0.584z"/>
    <path d="M63.556 65.556c-0.512 0-1.024-0.196-1.416-0.584l-31.108-31.1c-0.78-0.768-0.78-2.060 0-2.828s2.048-0.768 2.828 0l31.108 31.096c0.78 0.78 0.78 2.060 0 2.828-0.388 0.392-0.896 0.588-1.412 0.588z"/>
    <path d="M48 94c-25.364 0-46-20.64-46-46 0-25.368 20.636-46 46-46s46 20.632 46 46c0 25.36-20.636 46-46 46zM48 6c-23.16 0-42 18.836-42 42 0 23.156 18.84 42 42 42s42-18.844 42-42c0-23.164-18.84-42-42-42z"/>
</svg>